<?xml version="1.0" standalone="no"?>
<!DOCTYPE svg PUBLIC "-//W3C//DTD SVG 20010904//EN"
 "http://www.w3.org/TR/2001/REC-SVG-20010904/DTD/svg10.dtd">
<svg version="1.0" xmlns="http://www.w3.org/2000/svg"
 width="220.000000pt" height="206.000000pt" viewBox="0 0 220.000000 206.000000"
 preserveAspectRatio="xMidYMid meet">
<metadata>
Created by potrace 1.10, written by Peter Selinger 2001-2011
</metadata>
<g transform="translate(0.000000,206.000000) scale(0.100000,-0.100000)"
fill="#000000" stroke="none">
<path d="M1060 1893 c-93 -14 -206 -53 -250 -85 -14 -10 -70 -48 -125 -84
-190 -125 -303 -292 -365 -540 -26 -101 -31 -281 -11 -384 19 -98 83 -260 136
-341 84 -130 160 -198 338 -303 18 -10 34 -22 37 -26 9 -12 132 -57 195 -71
33 -7 121 -13 195 -13 108 0 154 4 230 23 85 21 166 53 180 70 3 3 34 24 70
45 36 22 67 42 70 46 3 3 36 32 75 64 114 96 172 179 228 326 55 145 70 232
64 385 -5 136 -27 244 -66 326 -12 24 -21 48 -21 55 0 6 -24 48 -53 92 -59 91
-188 216 -281 272 -32 19 -70 44 -85 56 -32 25 -98 50 -199 75 -58 14 -110 18
-207 18 -71 -1 -141 -3 -155 -6z m353 -44 c55 -11 112 -28 126 -38 14 -10 51
-31 81 -46 106 -53 264 -186 327 -277 33 -47 103 -196 103 -220 0 -8 4 -18 10
-24 16 -16 40 -183 40 -280 0 -86 -18 -205 -39 -264 -45 -122 -70 -175 -113
-240 -28 -41 -54 -76 -59 -78 -4 -2 -25 -19 -46 -39 -64 -60 -154 -133 -162
-133 -5 0 -38 -17 -72 -38 -125 -75 -218 -97 -404 -97 -115 1 -155 5 -223 24
-45 13 -84 27 -87 31 -2 4 -31 20 -62 36 -92 45 -228 141 -279 197 -61 68
-108 142 -140 219 -14 35 -32 76 -40 91 -8 16 -14 41 -14 56 0 15 -3 31 -7 35
-12 12 -15 38 -20 179 -4 107 -1 155 12 215 21 96 78 239 124 312 38 62 158
190 177 190 7 0 14 4 16 9 5 14 114 81 243 150 95 50 340 65 508 30z"/>
<path d="M1260 1775 c0 -15 -6 -25 -14 -25 -17 0 -31 -49 -18 -62 5 -5 14 3
22 21 15 36 30 32 30 -9 0 -22 6 -30 29 -38 15 -5 34 -6 42 -2 7 5 21 4 30 -1
26 -13 55 -11 69 6 18 22 5 30 -26 16 -34 -15 -43 -6 -37 42 6 42 23 51 23 11
0 -31 23 -28 28 4 2 15 -4 25 -22 33 -34 16 -56 -2 -56 -45 0 -23 -6 -34 -24
-42 -26 -12 -26 -12 -43 84 -6 38 -33 44 -33 7z"/>
<path d="M1125 1771 c-3 -11 -11 -20 -18 -18 -6 1 -13 -8 -15 -20 -4 -27 13
-30 27 -6 5 10 13 14 17 10 5 -4 2 -17 -5 -29 -18 -29 1 -44 24 -18 10 11 24
20 32 20 7 0 13 11 13 25 0 16 -6 25 -15 25 -9 0 -15 -9 -15 -22 0 -12 -3 -18
-7 -14 -5 4 -8 19 -8 33 0 32 -21 42 -30 14z"/>
<path d="M927 1722 c-25 -28 -18 -102 9 -102 17 0 17 5 4 30 -11 20 -4 70 9
70 4 0 11 -19 17 -42 11 -49 40 -69 32 -22 -3 16 -9 37 -13 47 -5 12 -3 17 8
17 9 0 21 -16 28 -35 10 -28 17 -34 32 -29 11 4 23 1 27 -7 7 -10 11 -10 24 0
26 21 19 34 -14 28 -17 -4 -30 -2 -30 3 0 5 -10 21 -22 35 -27 31 -86 35 -111
7z"/>
<path d="M1560 1719 c0 -7 7 -17 15 -23 14 -10 14 -15 0 -43 -9 -18 -20 -35
-26 -38 -14 -9 -11 -35 5 -35 7 0 19 14 26 30 7 17 16 30 20 30 16 0 16 48 -1
68 -19 24 -39 29 -39 11z"/>
<path d="M793 1684 c-4 -10 0 -22 10 -29 10 -7 17 -26 17 -43 0 -33 16 -50 32
-34 6 6 5 17 -3 30 -19 30 -1 42 21 15 17 -21 40 -31 40 -18 0 12 -33 55 -42
55 -5 0 -23 9 -39 21 -27 19 -30 19 -36 3z"/>
<path d="M1530 1665 c0 -8 7 -15 15 -15 8 0 15 7 15 15 0 8 -7 15 -15 15 -8 0
-15 -7 -15 -15z"/>
<path d="M1610 1619 c0 -24 23 -21 28 4 2 10 -3 17 -12 17 -10 0 -16 -9 -16
-21z"/>
<path d="M1428 1623 c7 -3 16 -2 19 1 4 3 -2 6 -13 5 -11 0 -14 -3 -6 -6z"/>
<path d="M647 1586 l-28 -22 26 -12 c22 -10 25 -9 25 8 0 24 -1 24 37 5 17 -9
33 -24 36 -35 3 -13 11 -18 20 -14 14 5 14 9 -1 40 -9 18 -25 34 -34 34 -9 0
-20 5 -23 10 -10 16 -27 11 -58 -14z"/>
<path d="M1072 1594 c-78 -14 -197 -71 -261 -125 -38 -32 -90 -95 -119 -143
-9 -16 -29 -43 -43 -60 -61 -74 -93 -283 -66 -431 16 -86 41 -155 57 -155 5 0
16 -15 24 -32 7 -18 23 -43 34 -54 12 -12 19 -24 16 -26 -10 -10 95 -109 161
-151 199 -127 505 -121 700 13 50 34 135 117 135 131 0 5 16 31 35 58 94 131
130 374 78 531 -33 101 -104 219 -171 287 -56 56 -98 84 -173 114 -145 59
-257 71 -407 43z m277 -29 c98 -25 178 -62 235 -107 30 -23 57 -50 61 -58 3
-8 23 -35 45 -60 22 -25 40 -48 40 -52 0 -3 -21 -18 -47 -33 -39 -21 -52 -24
-71 -16 -12 6 -55 14 -94 18 -56 5 -72 10 -75 24 -6 21 -47 33 -70 20 -19 -10
-73 5 -73 20 0 14 64 39 98 39 54 0 100 26 107 62 6 27 3 35 -19 55 -15 13
-39 26 -54 29 -15 3 -47 12 -70 20 -38 12 -46 12 -59 -1 -21 -21 -26 -19 -21
10 4 19 1 25 -13 25 -13 0 -18 -6 -16 -22 1 -15 -4 -23 -18 -26 -11 -2 -58
-22 -104 -44 -57 -27 -86 -36 -91 -29 -3 7 -24 14 -46 18 -21 3 -45 10 -51 16
-20 15 -28 -20 -9 -38 20 -21 20 -44 0 -66 -9 -10 -14 -25 -11 -34 5 -12 14
-10 51 15 25 17 48 39 51 50 5 16 12 18 38 13 55 -10 75 -36 36 -46 -12 -3
-19 -10 -15 -15 6 -10 66 -3 83 10 7 6 34 7 63 3 34 -5 50 -3 50 4 0 6 6 11
13 11 9 0 13 16 13 50 0 28 5 55 10 60 21 21 164 -23 164 -49 0 -14 -87 -49
-100 -41 -9 5 -18 3 -25 -6 -6 -8 -17 -16 -25 -18 -33 -7 -48 -19 -54 -42 -7
-27 -21 -31 -30 -8 -3 8 -10 13 -16 9 -6 -4 -6 -15 1 -32 7 -18 7 -35 0 -52
-15 -36 -18 -90 -6 -91 6 0 12 10 13 22 2 13 8 27 13 32 5 5 71 9 146 8 76 -1
156 -2 177 -2 50 0 44 -7 -69 -65 -105 -55 -138 -74 -222 -128 -35 -21 -68
-36 -75 -33 -7 3 -35 20 -63 37 -27 16 -63 36 -80 44 -16 7 -61 32 -98 55 -38
22 -79 45 -93 50 -13 5 -24 17 -24 25 0 9 4 14 8 11 5 -3 65 -6 134 -7 115 -2
125 -4 121 -21 -4 -12 3 -21 22 -28 38 -14 40 -13 14 10 l-24 19 28 23 c15 13
36 36 47 53 l19 30 -57 12 c-86 18 -104 16 -142 -17 -38 -32 -81 -38 -100 -15
-17 21 -29 19 -50 -7 -17 -22 -19 -22 -37 -5 -24 21 -43 22 -43 2 0 -17 -35
-21 -45 -5 -3 6 -15 10 -26 10 -24 0 -24 8 -2 40 99 142 215 226 352 256 78
17 213 17 280 -1z m-63 -87 c-4 -13 -9 -38 -13 -55 -4 -26 -11 -33 -28 -33
-13 0 -25 7 -28 14 -5 11 -13 13 -34 7 -31 -9 -78 3 -69 18 4 5 22 15 41 21
18 6 51 20 72 30 52 26 67 26 59 -2z m-283 -55 c7 -6 -11 -33 -22 -33 -4 0 -7
9 -8 20 -2 19 16 27 30 13z m140 -142 c26 -6 27 -7 13 -26 -11 -16 -28 -20
-86 -22 l-72 -3 23 24 c34 32 62 46 79 39 8 -3 28 -8 43 -12z m151 10 c3 -5
20 -14 36 -20 20 -6 28 -7 25 0 -4 6 4 7 22 3 55 -13 47 -24 -18 -24 -38 0
-71 5 -78 13 -11 10 -13 10 -7 0 4 -7 2 -13 -4 -13 -7 0 -9 7 -6 16 3 9 6 20
6 25 0 12 17 12 24 0z m-582 -38 c2 -5 19 -17 39 -28 84 -46 177 -100 224
-130 28 -17 79 -46 115 -64 36 -18 72 -41 82 -52 9 -10 20 -19 25 -19 12 0 11
-183 -1 -192 -5 -4 -27 7 -48 24 -33 25 -45 29 -76 25 -24 -4 -44 -1 -56 8
-11 8 -28 15 -37 15 -10 0 -31 11 -47 25 -30 25 -62 33 -62 15 0 -6 -28 -10
-64 -10 -55 0 -67 -3 -80 -22 -13 -18 -18 -19 -30 -8 -10 8 -28 10 -50 6 l-34
-7 -7 75 c-4 40 -4 93 0 117 13 86 28 149 37 149 4 0 15 18 24 40 15 36 37 52
46 33z m1055 -45 c39 -97 45 -128 45 -241 1 -97 -3 -123 -26 -189 -29 -82 -70
-163 -89 -175 -7 -4 -36 -8 -65 -8 l-54 0 5 35 c3 19 18 70 33 113 26 73 27
78 11 94 -16 16 -17 16 -17 -5 0 -12 -16 -54 -35 -93 -19 -40 -35 -77 -35 -83
0 -6 -13 -24 -30 -39 -30 -28 -50 -29 -50 -1 0 8 -4 22 -10 32 -5 9 -17 45
-27 80 -10 36 -23 62 -31 62 -8 0 -11 -7 -8 -17 15 -50 22 -103 18 -144 -4
-45 -5 -47 -35 -45 -25 1 -32 -4 -37 -24 -6 -24 -7 -24 -14 -3 -11 33 -35 37
-46 8 -5 -14 -16 -25 -25 -25 -13 0 -15 26 -13 212 l3 211 60 44 c33 24 67 46
75 49 43 17 186 94 270 145 52 31 98 58 101 58 3 1 15 -23 26 -51z m-867 32
c0 -5 -7 -10 -16 -10 -8 0 -12 5 -9 10 3 6 10 10 16 10 5 0 9 -4 9 -10z m-66
-15 c3 -8 2 -15 -3 -15 -5 0 -14 7 -21 15 -10 12 -10 15 3 15 8 0 17 -7 21
-15z m66 -377 c0 -4 6 -8 14 -8 8 0 21 -6 28 -14 8 -8 23 -16 34 -18 10 -2 18
-9 17 -15 -1 -6 6 -9 19 -5 13 3 26 -1 33 -12 11 -14 13 -15 19 -1 3 8 17 15
33 15 l28 -1 -22 -18 c-18 -15 -34 -18 -75 -15 -29 3 -57 5 -63 5 -218 -2
-311 -6 -317 -15 -11 -16 -18 -3 -23 41 l-4 40 50 -10 c43 -8 52 -7 70 9 13
12 37 18 69 19 27 0 52 3 55 6 8 9 35 7 35 -3z m240 -88 c0 -5 -7 -10 -15 -10
-8 0 -15 5 -15 10 0 6 7 10 15 10 8 0 15 -4 15 -10z m-428 -41 c-2 -8 -9 -20
-15 -27 -9 -11 -14 -9 -28 10 -19 25 -11 36 24 33 13 -2 21 -8 19 -16z m208 9
c0 -7 -7 -58 -15 -112 -8 -55 -15 -112 -15 -127 0 -36 -10 -41 -38 -18 l-23
18 20 100 c12 55 21 109 21 120 0 17 12 25 43 30 4 0 7 -5 7 -11z m55 -157 c0
-90 -2 -164 -5 -166 -3 -2 -20 5 -37 16 -28 18 -31 23 -23 47 4 15 14 77 20
137 14 129 16 138 33 132 9 -3 12 -45 12 -166z m95 18 c5 -79 12 -161 15 -182
l5 -37 -42 6 c-24 4 -45 10 -48 15 -3 4 -4 81 -2 172 l3 166 27 3 c15 2 28 3
30 2 1 -1 7 -66 12 -145z m44 129 c3 -13 12 -66 20 -118 25 -153 41 -221 51
-218 6 2 9 10 8 18 -14 106 -36 235 -43 262 -13 43 -13 78 0 78 6 0 12 -6 14
-12 2 -7 12 -40 22 -73 17 -56 22 -105 23 -232 1 -80 20 -63 23 20 l3 72 65 2
c36 1 103 4 150 8 176 12 190 12 190 1 0 -19 -118 -96 -185 -121 -31 -12 -34
-13 -125 -36 -65 -16 -91 -19 -112 -11 -17 6 -30 7 -34 1 -5 -9 -53 -2 -66 10
-4 3 -10 60 -14 126 -3 66 -9 145 -14 175 -4 30 -6 58 -3 63 9 14 23 7 27 -15z
m96 -21 c0 -24 -3 -28 -10 -17 -13 20 -13 63 0 55 6 -3 10 -21 10 -38z m-434
16 c-4 -9 -9 -43 -13 -75 -3 -32 -9 -58 -12 -58 -6 0 -51 66 -51 74 0 20 45
76 62 76 15 0 18 -5 14 -17z m74 10 c-1 -5 -7 -35 -15 -68 -8 -33 -15 -77 -15
-97 0 -45 -11 -54 -35 -28 -14 15 -15 24 -6 52 6 18 12 56 15 83 2 28 5 53 5
58 1 4 12 7 26 7 14 0 25 -3 25 -7z m628 -153 c9 0 28 9 42 20 31 24 36 25 43
1 3 -14 14 -19 52 -19 53 -1 64 -7 47 -24 -8 -8 -15 -8 -25 0 -7 6 -22 11 -32
11 -11 0 -62 1 -114 2 -77 2 -91 4 -78 14 10 7 17 18 17 26 0 8 7 4 16 -9 8
-12 23 -22 32 -22z"/>
<path d="M1373 1448 c2 -7 10 -13 17 -13 7 0 15 6 18 13 2 7 -5 12 -18 12 -13
0 -20 -5 -17 -12z"/>
<path d="M1015 1151 c-3 -5 -2 -12 3 -15 5 -3 9 1 9 9 0 17 -3 19 -12 6z"/>
<path d="M1080 1145 c0 -28 32 -66 68 -81 59 -24 119 -10 165 39 27 28 35 43
27 51 -7 7 -17 7 -33 -3 -31 -20 -98 -31 -120 -20 -13 7 -19 6 -23 -6 -5 -13
-11 -12 -40 10 -38 29 -44 30 -44 10z m165 -54 c-6 -11 -70 -9 -81 2 -4 4 14
7 40 7 27 0 45 -4 41 -9z"/>
<path d="M1048 1243 c7 -3 16 -2 19 1 4 3 -2 6 -13 5 -11 0 -14 -3 -6 -6z"/>
<path d="M810 1139 c0 -5 5 -7 10 -4 6 3 10 8 10 11 0 2 -4 4 -10 4 -5 0 -10
-5 -10 -11z"/>
<path d="M716 1104 c-11 -28 -6 -53 12 -64 16 -10 16 -10 0 -20 -27 -16 -22
-31 7 -24 21 5 25 3 25 -15 0 -12 5 -21 10 -21 6 0 10 -13 10 -29 0 -22 6 -30
24 -35 28 -7 55 1 58 18 3 25 5 32 18 59 10 20 18 26 32 21 21 -6 24 6 6 25
-11 10 -10 15 5 25 29 22 15 66 -21 66 -12 0 -12 -3 -2 -15 26 -31 6 -41 -76
-40 l-79 2 3 32 c2 33 -21 45 -32 15z m170 -86 c5 -8 0 -9 -14 -6 -12 4 -19 2
-16 -3 9 -14 -6 -50 -18 -43 -7 5 -9 -2 -4 -20 5 -20 3 -26 -10 -26 -10 0 -14
3 -11 7 4 3 0 17 -8 30 -9 13 -20 34 -25 48 -9 25 -9 25 45 25 30 0 57 -5 61
-12z"/>
<path d="M1671 1096 c-7 -9 -18 -37 -25 -62 -13 -52 -31 -67 -41 -35 -3 10
-20 24 -37 30 -42 15 -48 14 -48 -8 0 -12 9 -20 28 -24 16 -4 32 -16 39 -31
10 -24 9 -26 -12 -26 -12 0 -28 -7 -35 -15 -16 -19 -40 -19 -40 0 0 14 -33 34
-69 41 -13 3 -50 -33 -51 -49 0 -4 14 -1 30 8 27 14 30 14 30 0 0 -8 8 -15 18
-15 9 0 29 -6 44 -14 23 -12 29 -12 48 1 36 25 37 5 2 -57 -23 -42 -29 -61
-20 -66 20 -13 62 53 66 104 2 26 10 52 18 58 12 10 12 13 2 17 -7 3 -1 6 14
6 14 1 29 -5 31 -11 3 -7 6 -2 6 10 1 13 8 49 17 79 17 57 9 88 -15 59z"/>
<path d="M1352 1017 c-15 -16 -21 -33 -19 -57 4 -63 37 -63 37 -1 0 22 6 44
15 51 8 7 15 16 15 21 0 17 -27 9 -48 -14z"/>
<path d="M1696 963 c-11 -14 -20 -42 -22 -62 -3 -52 -3 -51 -19 -51 -19 0 -19
-14 -1 -29 8 -7 18 -26 21 -42 4 -16 13 -29 21 -29 18 0 18 24 -2 61 -17 33
-12 71 7 52 6 -6 16 -21 23 -34 13 -25 29 -27 34 -5 5 24 -30 65 -55 66 -28 0
-30 16 -4 30 30 15 40 12 53 -15 13 -30 38 -33 38 -5 0 11 -4 20 -8 20 -5 0
-16 16 -25 35 -20 42 -35 44 -61 8z"/>
<path d="M1278 914 c-16 -8 -28 -21 -28 -29 0 -12 5 -12 33 -1 17 7 38 11 45
9 15 -6 16 9 0 25 -15 15 -17 15 -50 -4z"/>
<path d="M1414 860 c-16 -18 -19 -31 -13 -47 8 -23 82 -67 93 -56 16 16 2 33
-34 43 -39 11 -53 33 -26 43 7 3 26 -1 40 -8 23 -12 28 -12 33 0 7 21 -13 42
-45 47 -20 3 -33 -3 -48 -22z"/>
<path d="M1328 873 c-34 -5 -44 -19 -51 -69 -7 -59 7 -76 24 -28 8 22 14 44
14 50 0 7 11 21 25 33 14 11 23 20 20 19 -3 0 -17 -3 -32 -5z"/>
<path d="M1332 764 c-2 -58 -1 -65 15 -62 14 3 17 12 15 48 -7 100 -27 109
-30 14z"/>
<path d="M1641 684 c0 -11 3 -14 6 -6 3 7 2 16 -1 19 -3 4 -6 -2 -5 -13z"/>
<path d="M1718 1604 c-3 -3 -19 -6 -36 -6 -16 -1 -40 -9 -53 -19 l-24 -18 40
-35 c29 -26 46 -34 63 -31 12 3 22 1 22 -4 0 -5 10 -11 22 -13 29 -4 34 -25 8
-33 -16 -5 -19 -10 -11 -18 6 -6 11 -24 11 -40 0 -22 4 -28 18 -25 12 3 16 12
15 33 -1 16 3 35 9 43 9 10 9 15 -1 22 -17 10 -5 50 15 50 16 0 19 -16 4 -25
-15 -9 -12 -25 4 -25 13 0 26 20 26 40 0 12 -29 40 -41 40 -5 0 -16 -8 -25
-19 -20 -23 -52 -16 -78 16 -14 18 -21 21 -32 13 -7 -7 -18 -9 -24 -5 -20 12
2 25 44 25 39 0 66 13 66 32 0 9 -34 11 -42 2z"/>
<path d="M566 1485 c-14 -13 -26 -33 -26 -44 0 -33 22 -71 42 -71 23 0 23 6
-2 37 -21 27 -26 53 -10 53 5 0 15 -9 22 -20 7 -11 18 -20 25 -20 18 0 16 27
-2 34 -8 3 -15 13 -15 21 0 20 35 11 66 -16 21 -19 34 -16 34 7 0 17 -51 44
-83 44 -13 0 -36 -11 -51 -25z"/>
<path d="M1870 1411 c0 -14 6 -17 25 -13 50 9 11 -50 -46 -70 -54 -19 -32 -43
25 -26 47 15 75 65 58 104 -14 30 -62 35 -62 5z"/>
<path d="M457 1363 c-12 -12 -8 -21 13 -28 12 -4 20 -15 21 -28 0 -12 13 -32
30 -45 l29 -24 7 34 c4 18 6 36 5 41 -1 4 5 7 13 7 8 0 15 7 15 15 0 8 -3 14
-7 13 -8 -2 -75 9 -104 18 -8 2 -18 1 -22 -3z m87 -41 c8 -13 -11 -35 -23 -28
-16 10 -14 36 3 36 8 0 17 -4 20 -8z"/>
<path d="M1923 1294 c-8 -20 9 -49 28 -49 8 0 15 -4 17 -10 1 -5 -19 -12 -44
-15 -26 -3 -49 -11 -52 -17 -4 -15 14 -16 82 -7 54 8 59 24 24 79 -25 38 -45
45 -55 19z m37 -14 c0 -5 -5 -10 -11 -10 -5 0 -7 5 -4 10 3 6 8 10 11 10 2 0
4 -4 4 -10z"/>
<path d="M445 1290 c-3 -5 -1 -10 4 -10 6 0 11 5 11 10 0 6 -2 10 -4 10 -3 0
-8 -4 -11 -10z"/>
<path d="M470 1241 c0 -15 -10 -21 -40 -26 -45 -8 -61 -23 -36 -37 9 -5 16
-15 16 -22 0 -7 19 -21 43 -30 53 -20 59 -20 55 1 -2 9 -20 21 -42 27 -51 15
-63 41 -15 33 19 -3 44 -8 57 -12 17 -6 22 -3 22 9 0 9 -8 16 -19 16 -23 0
-36 16 -21 25 15 10 12 35 -5 35 -8 0 -15 -9 -15 -19z"/>
<path d="M1969 1089 c-10 -10 -16 -30 -14 -48 2 -30 15 -57 15 -32 0 7 11 11
26 9 23 -3 27 1 30 31 3 26 1 32 -11 27 -9 -3 -15 0 -15 9 0 22 -13 24 -31 4z"/>
<path d="M424 1035 c-4 -8 -12 -15 -20 -15 -17 0 -19 -16 -3 -26 6 -3 9 -17 6
-30 -4 -25 17 -35 27 -11 3 8 8 7 16 -6 15 -23 28 -14 23 17 -3 13 0 27 6 30
16 10 13 26 -4 26 -9 0 -18 7 -21 15 -4 8 -10 15 -15 15 -5 0 -12 -7 -15 -15z"/>
<path d="M1928 917 c-22 -52 -2 -87 48 -87 40 0 66 24 62 59 -2 21 -9 27 -35
29 -28 3 -33 0 -33 -17 0 -23 10 -27 27 -10 7 7 12 6 17 -6 4 -10 -2 -18 -16
-24 -38 -14 -57 -2 -60 38 -2 27 -5 31 -10 18z"/>
<path d="M462 842 c-7 -2 -17 -15 -22 -28 -11 -29 -30 -32 -30 -4 0 24 -18 27
-27 4 -8 -21 30 -59 51 -51 9 4 21 18 26 32 10 27 30 26 30 -1 0 -8 7 -14 16
-14 11 0 14 5 10 16 -3 9 -6 21 -6 29 0 14 -28 24 -48 17z"/>
<path d="M1907 803 c-15 -14 -6 -23 23 -23 21 0 30 -5 30 -16 0 -11 8 -14 33
-12 20 2 32 8 32 18 0 8 -5 14 -12 13 -6 -2 -28 4 -47 12 -39 17 -50 18 -59 8z"/>
<path d="M473 740 c-22 -10 -46 -26 -51 -36 -15 -26 3 -54 34 -54 37 0 94 27
94 44 0 13 -7 12 -47 -5 -28 -12 -50 -16 -55 -11 -11 11 28 42 54 42 9 0 20 5
24 11 13 22 -12 26 -53 9z"/>
<path d="M1897 743 c-14 -13 -6 -21 26 -26 17 -4 47 -9 65 -13 21 -4 32 -2 32
5 0 6 -3 11 -7 12 -30 3 -48 9 -51 18 -4 12 -55 15 -65 4z"/>
<path d="M1865 691 c-7 -12 -3 -14 65 -40 66 -25 72 -26 68 -5 -2 9 -27 24
-58 34 -64 23 -67 23 -75 11z"/>
<path d="M504 624 c-38 -22 -41 -26 -35 -57 9 -42 37 -44 33 -2 -2 27 2 32 38
47 41 17 54 39 23 37 -10 -1 -37 -12 -59 -25z"/>
<path d="M1837 601 c-23 -40 -22 -50 11 -62 15 -6 40 -17 57 -25 27 -13 31
-13 42 3 22 29 16 69 -13 92 -39 31 -76 27 -97 -8z m89 -26 c21 -33 11 -47
-24 -33 -37 16 -56 34 -48 47 13 20 55 12 72 -14z"/>
<path d="M584 570 c3 -18 1 -30 -5 -30 -17 0 -69 -43 -69 -57 0 -20 12 -16 50
16 28 23 38 26 52 18 27 -17 29 -4 7 41 -25 49 -44 56 -35 12z"/>
<path d="M1775 491 c-7 -12 56 -100 73 -100 15 -1 15 2 0 34 -6 14 -17 25 -25
25 -7 0 -13 11 -13 25 0 25 -23 35 -35 16z"/>
<path d="M645 481 c-63 -22 -94 -42 -89 -56 7 -17 24 -20 24 -5 0 6 7 10 15
10 17 0 20 -26 4 -36 -8 -4 -8 -9 0 -17 9 -9 22 0 51 32 56 61 54 93 -5 72z
m5 -30 c0 -12 -20 -25 -27 -18 -7 7 6 27 18 27 5 0 9 -4 9 -9z"/>
<path d="M1830 483 c1 -19 18 -33 48 -39 25 -5 32 -3 32 10 0 10 -8 16 -21 16
-11 0 -29 5 -40 10 -10 6 -19 7 -19 3z"/>
<path d="M698 385 c-21 -24 -38 -48 -38 -54 0 -19 19 -12 36 14 9 14 23 25 30
25 15 0 35 39 27 53 -8 13 -18 7 -55 -38z"/>
<path d="M1697 413 c-14 -17 -12 -21 24 -61 21 -25 43 -41 49 -37 8 5 6 13 -6
26 -22 24 -10 38 14 16 47 -42 42 -5 -4 39 -42 39 -54 41 -77 17z m48 -21 c0
-18 -20 -15 -23 4 -3 10 1 15 10 12 7 -3 13 -10 13 -16z"/>
<path d="M743 356 c-35 -34 -43 -66 -18 -66 8 0 15 4 15 9 0 5 14 22 31 39 17
17 28 35 24 41 -9 15 -16 12 -52 -23z"/>
<path d="M1628 357 c-35 -28 -36 -46 -3 -39 17 3 25 0 25 -9 1 -21 38 -61 50
-54 7 4 2 19 -15 41 -19 24 -24 40 -19 59 8 31 -3 31 -38 2z"/>
<path d="M840 293 c-27 -35 -23 -74 10 -90 22 -11 27 -10 42 10 18 23 19 38 1
44 -6 2 -13 -6 -16 -19 -5 -17 -9 -20 -18 -11 -17 17 -3 63 21 63 10 0 22 -4
25 -10 9 -15 25 -12 25 5 0 16 -30 35 -54 35 -8 0 -24 -12 -36 -27z"/>
<path d="M1590 290 c0 -5 5 -10 11 -10 5 0 7 5 4 10 -3 6 -8 10 -11 10 -2 0
-4 -4 -4 -10z"/>
<path d="M1492 283 c2 -5 14 -30 26 -57 20 -44 24 -48 50 -41 34 8 36 10 28
31 -5 13 -9 14 -21 4 -9 -7 -17 -11 -18 -9 -1 2 -10 21 -20 42 -9 20 -24 37
-33 37 -8 0 -14 -3 -12 -7z"/>
<path d="M946 237 c-9 -23 -16 -48 -16 -54 0 -12 58 -39 66 -30 9 9 -6 27 -22
27 -8 0 -14 7 -14 15 0 11 7 14 25 9 14 -3 25 -2 25 4 0 5 -9 12 -20 15 -11 3
-20 11 -20 17 0 8 9 10 25 6 28 -7 37 17 9 28 -31 12 -42 5 -58 -37z"/>
<path d="M1067 254 c-4 -4 -7 -16 -7 -26 0 -11 -4 -16 -10 -13 -6 4 -10 -10
-10 -34 0 -23 -1 -44 -2 -48 -2 -4 5 -9 15 -11 14 -3 17 4 17 33 0 20 7 43 15
52 9 8 15 22 13 31 -3 17 -21 26 -31 16z"/>
<path d="M1407 253 c-4 -3 -7 -35 -7 -70 0 -52 3 -63 16 -63 14 0 16 8 11 50
-4 29 -2 50 3 50 6 0 10 -8 10 -17 1 -27 27 -56 45 -50 19 8 20 26 0 33 -8 3
-24 21 -36 40 -21 34 -30 40 -42 27z"/>
<path d="M1127 243 c-4 -3 -7 -17 -7 -30 0 -12 -5 -23 -11 -23 -13 0 -8 -70 6
-73 6 -1 13 16 17 38 4 22 10 52 14 68 6 25 -4 36 -19 20z"/>
<path d="M1178 183 c-2 -32 0 -64 5 -70 15 -21 54 -16 60 7 4 17 1 19 -20 14
-21 -6 -24 -3 -21 12 2 11 13 20 26 22 27 4 19 22 -9 22 -12 0 -19 5 -16 13 2
6 12 12 23 12 32 0 21 20 -13 23 l-31 3 -4 -58z"/>
<path d="M1277 233 c-10 -16 8 -126 21 -131 10 -3 13 4 10 24 -4 34 15 45 22
13 3 -12 12 -25 19 -27 11 -4 12 2 7 24 -4 16 -8 45 -9 64 -2 31 -5 35 -34 38
-17 2 -33 -1 -36 -5z m46 -19 c9 -9 -4 -35 -14 -28 -5 3 -9 12 -9 20 0 14 12
19 23 8z"/>
<path d="M1987 401 c-4 -17 -3 -21 5 -13 5 5 8 16 6 23 -3 8 -7 3 -11 -10z"/>
</g>
</svg>
